# xmcd
#
# Track frame offsets:
#	150
#	12752
#	25654
#	40656
#	55658
#	70210
#	80862
#	94364
#	106891
#	120543
#	136220
#	150547
#
# Disc length: 2178 seconds
#
# Revision: 2
# Processed by: cddbd v1.5.2PL0 Copyright (c) Steve Scherf et al.
# Submitted via: audiograbber 1.83.01
#
DISCID=9008800c
DTITLE=Kieran McGilligan - When I Want To Love A Lady
DYEAR=1900
DGENRE=
TTITLE0=It All Depends On Who Will Buy The Wine
TTITLE1=When I Want To Love A Lady
TTITLE2=My Own Leitrim Home
TTITLE3=Colleen Malone
TTITLE4=My Wild Mountain Rose
TTITLE5=Happy Heartaches
TTITLE6=Come Dancing
TTITLE7=That's What It's Like To Be Lonesome
TTITLE8=My Own Rollin' Roe
TTITLE9=Angeline
TTITLE10=Can I Count On You?
TTITLE11=The Next Time We're In Town
EXTD=
EXTT0=
EXTT1=
EXTT2=
EXTT3=
EXTT4=
EXTT5=
EXTT6=
EXTT7=
EXTT8=
EXTT9=
EXTT10=
EXTT11=
PLAYORDER=
